PathFileType	4	(X/Y/Z)	./resultDataOpenSim/trcMotMarkerGrf/sub10/qtm-15-05.trc
DataRate	CameraRate	NumFrames	NumMarkers	Units	OrigDataRate	OrigDataStartFrame	OrigNumFrames
250.000000	250.000000	9	24	m	250.000000	376	501
Frame#	Time	L.Toe.Tip			R.Toe.Tip			L.Ankle.Lat			R.Ankle.Lat			L.Ankle.Med			R.Ankle.Med			L.Heel			R.Heel			L.Knee.Lat			R.Knee.Lat			L.Knee.Med			R.Knee.Med			L.Thigh.Upper			R.Thigh.Upper			L.ASIS			R.ASIS			V.Sacral			L.Acromium			R.Acromium			C7			L.Elbow			R.Elbow			L.Wrist.Lat			R.Wrist.Lat
		X1	Y1	Z1	X2	Y2	Z2	X3	Y3	Z3	X4	Y4	Z4	X5	Y5	Z5	X6	Y6	Z6	X7	Y7	Z7	X8	Y8	Z8	X9	Y9	Z9	X10	Y10	Z10	X11	Y11	Z11	X12	Y12	Z12	X13	Y13	Z13	X14	Y14	Z14	X15	Y15	Z15	X16	Y16	Z16	X17	Y17	Z17	X18	Y18	Z18	X19	Y19	Z19	X20	Y20	Z20	X21	Y21	Z21	X22	Y22	Z22	X23	Y23	Z23	X24	Y24	Z24

376	1.5	1.1224109	0.07415296	-0.2719468	0.82683747	0.039328684	-0.039114531	0.99055779	0.10088558	-0.2820046	0.68250162	0.05441926	-0.0082237717	1.0148535	0.114924	-0.20036482	0.70727489	0.082308096	-0.090669765	0.93070601	0.064565291	-0.23668188	0.63246628	0.030498431	-0.056621739	1.0476137	0.4895256	-0.26000493	0.80636693	0.44100945	0.04030454	1.0715341	0.45060925	-0.14534818	0.82019052	0.44645643	-0.087337419	0.91033638	0.84715716	-0.27292671	0.83971011	0.85314487	0.10828779	0.95054063	0.95379771	-0.19213386	0.92216189	0.95072609	0.051106845	0.73593154	0.96206351	-0.099680607	0.87142538	1.4275768	-0.23071664	0.83358555	1.4139897	0.091243296	0.78055836	1.448956	-0.083280286	0.73192234	1.1173222	-0.29628647	0.78203935	1.0581023	0.14059992	0.81006066	0.93467431	-0.44500681	0.97288521	0.95203458	0.26748669
377	1.504	1.1379699	0.074930609	-0.27089697	0.82665886	0.039283239	-0.039200837	1.0055731	0.098751899	-0.28184589	0.68248613	0.054550298	-0.0083418269	1.0289114	0.11342997	-0.19993784	0.70722293	0.082307255	-0.090869986	0.94604046	0.06151127	-0.23733464	0.63238446	0.03057496	-0.056701052	1.0532892	0.48881623	-0.2604145	0.8074264	0.44073731	0.040116661	1.0776595	0.45025167	-0.14574515	0.82179096	0.44589066	-0.087494619	0.9162468	0.84655055	-0.2732395	0.84260416	0.85254195	0.10787675	0.95581909	0.95312994	-0.19178892	0.92588728	0.94990012	0.051339321	0.74023764	0.96165965	-0.10103375	0.87569302	1.4265504	-0.23117369	0.83816455	1.4133492	0.090975933	0.78485818	1.448147	-0.08362018	0.73566313	1.1163382	-0.2956567	0.78916228	1.0572127	0.14138005	0.8132371	0.93273985	-0.44341264	0.98234725	0.9513099	0.26259697
378	1.508	1.1534251	0.075812375	-0.26981244	0.82652963	0.039250496	-0.039263766	1.0205562	0.096799325	-0.28165673	0.6824739	0.054677444	-0.0084462931	1.0438398	0.11245892	-0.19949905	0.7071712	0.082305506	-0.091070603	0.96150083	0.05856994	-0.23776065	0.63229671	0.030655585	-0.056775081	1.0590214	0.48799836	-0.26085711	0.80858354	0.44044376	0.03992705	1.0837449	0.44982992	-0.14613582	0.82339527	0.44533628	-0.087693387	0.9221485	0.84583243	-0.27355582	0.8456586	0.85189416	0.10749081	0.96108639	0.95236601	-0.19144611	0.92960939	0.94900787	0.05155182	0.74709053	0.96062715	-0.10386467	0.87996823	1.4254579	-0.23164375	0.84275778	1.4126496	0.090707863	0.7891451	1.447271	-0.083978503	0.7394159	1.1152946	-0.29508602	0.79624168	1.0561788	0.14221129	0.8164532	0.93077745	-0.44188664	0.99182234	0.95057093	0.25762827
379	1.512	1.1687695	0.076803226	-0.26868699	0.82644303	0.0392301	-0.039307222	1.0354958	0.095027827	-0.28143897	0.68246669	0.05479218	-0.0085465147	1.0588984	0.11171396	-0.19909831	0.70712552	0.082301467	-0.091265133	0.97703433	0.055768245	-0.2379621	0.63220652	0.030743763	-0.056839649	1.06484	0.48706777	-0.26136099	0.80984373	0.44012191	0.039733998	1.089802	0.44935032	-0.14651222	0.82514024	0.44480289	-0.08787796	0.92804798	0.84500895	-0.27387878	0.84878629	0.8512017	0.10710665	0.96637903	0.95151259	-0.19112352	0.93333525	0.94806149	0.051758492	0.75513679	0.95894782	-0.10738982	0.88425345	1.4242977	-0.23212197	0.8473651	1.4118892	0.090439099	0.79343828	1.4463372	-0.084350162	0.74319036	1.1141896	-0.29456416	0.80282724	1.0549933	0.14260357	0.81970545	0.92878717	-0.44043186	1.0012752	0.94983149	0.25260679
380	1.516	1.1839936	0.077908885	-0.26751277	0.82636164	0.039212277	-0.039350512	1.0503861	0.093421322	-0.28120334	0.68246817	0.054891188	-0.0086468129	1.073547	0.11097994	-0.19876324	0.70708737	0.082295232	-0.091447742	0.99255703	0.05313237	-0.23801433	0.6321187	0.030843919	-0.056892288	1.0707219	0.48604668	-0.2618991	0.81120316	0.43977254	0.039532383	1.0958551	0.44881311	-0.14687316	0.82706225	0.44426248	-0.08803973	0.9339362	0.84409282	-0.27420519	0.85190683	0.85047257	0.10666747	0.97170814	0.95057779	-0.19083882	0.93707778	0.94707533	0.051973002	0.76246008	0.95702708	-0.11048501	0.88855201	1.4230683	-0.23260604	0.85198596	1.4110537	0.090166711	0.79774886	1.4453542	-0.084732987	0.7469985	1.1130224	-0.29408451	0.80897318	1.0537436	0.1423642	0.82299345	0.92677122	-0.43904921	1.0106408	0.94911998	0.24758789
381	1.52	1.1990846	0.079138714	-0.26629443	0.82625555	0.039187532	-0.03940802	1.0652149	0.091970829	-0.28096525	0.68248077	0.05497768	-0.0087456491	1.0877816	0.11025872	-0.19848299	0.70706377	0.082287988	-0.091615546	1.0080158	0.050678922	-0.23800947	0.63203594	0.030958876	-0.056936607	1.0766323	0.48495712	-0.26243692	0.81265493	0.43940212	0.039319369	1.1019271	0.44822256	-0.14721776	0.82910485	0.44368472	-0.088205799	0.93979897	0.84309807	-0.27453525	0.85504257	0.84971156	0.10613333	0.97705752	0.94956805	-0.19060074	0.94084371	0.94605546	0.05218624	0.76804459	0.95543488	-0.11254488	0.89287024	1.4217736	-0.23309563	0.85662003	1.4101318	0.08988927	0.80206855	1.4443229	-0.085131224	0.75084707	1.1117888	-0.293649	0.81495687	1.0524892	0.14165923	0.82631639	0.92473284	-0.43773606	1.0198983	0.94845733	0.24261272
382	1.524	1.2140296	0.080502049	-0.26504985	0.82612438	0.039152758	-0.039477592	1.0799657	0.090682145	-0.28073509	0.68250302	0.055061158	-0.0088384745	1.1017869	0.10962385	-0.19823586	0.70706266	0.082280979	-0.091770595	1.0233969	0.048427878	-0.2380363	0.63195835	0.031088022	-0.05698031	1.0825484	0.48380475	-0.26296044	0.81420126	0.43900876	0.03909775	1.1080208	0.44758594	-0.14753656	0.83121228	0.44305847	-0.088400978	0.94562895	0.84203365	-0.27487174	0.85821744	0.84891605	0.105522	0.98241293	0.94848529	-0.19041019	0.94463654	0.94499851	0.052371735	0.77190934	0.95452679	-0.11357454	0.89721329	1.4204232	-0.23359174	0.86126839	1.4091286	0.089604854	0.8063903	1.4432402	-0.085548163	0.75473216	1.1104807	-0.29326033	0.82097281	1.0512276	0.14078502	0.82967274	0.92267405	-0.43648724	1.0290774	0.94784324	0.23768444
383	1.528	1.2288192	0.082006662	-0.26380298	0.82601149	0.039117508	-0.039532443	1.0946268	0.089564424	-0.28051734	0.68253196	0.055153299	-0.0089232709	1.1156757	0.10911774	-0.19800687	0.70707964	0.082274468	-0.091914644	1.0387037	0.046400054	-0.23816143	0.63188551	0.031228727	-0.057029818	1.0884693	0.48258834	-0.26346764	0.81585314	0.43858325	0.038868408	1.1141239	0.44690667	-0.14781824	0.83337386	0.4423909	-0.088628333	0.95142867	0.84090456	-0.27521296	0.86141656	0.84809201	0.1048723	0.98777073	0.94733204	-0.19026758	0.94846419	0.94390329	0.052508376	0.7748536	0.95415075	-0.11403241	0.90157842	1.4190272	-0.2340971	0.86593534	1.4080599	0.089312211	0.81072359	1.442107	-0.085982196	0.75864745	1.1090975	-0.29291471	0.82711029	1.0499272	0.13995979	0.83306465	0.92059557	-0.43529834	1.038204	0.94725502	0.23277088
384	1.532	1.2434499	0.08365747	-0.26257663	0.82596207	0.039095291	-0.03954899	1.109191	0.088618582	-0.28031818	0.68256649	0.055262517	-0.0090036226	1.1294448	0.10873599	-0.19778879	0.70709955	0.082267659	-0.092047438	1.0539345	0.044605275	-0.23841338	0.63181725	0.031379789	-0.05708652	1.0944052	0.48131212	-0.26395797	0.8176162	0.43812079	0.038626622	1.1202384	0.44618859	-0.14806269	0.83560361	0.44169422	-0.088873953	0.95720326	0.83971437	-0.2755537	0.86463002	0.8472424	0.1042085	0.99312819	0.94611737	-0.19017659	0.95232729	0.942779	0.052594533	0.77800147	0.95372036	-0.11455926	0.9059588	1.4175891	-0.23461279	0.87062599	1.4069392	0.089013537	0.81507985	1.4409277	-0.086425806	0.7625909	1.1076506	-0.29260424	0.83341245	1.0485609	0.1392803	0.83649903	0.91849783	-0.43416884	1.0472843	0.9466608	0.22782103
